HIERARCHY
ROOT Hips
{
  OFFSET 47.6176 90.9497 86.0644
  CHANNELS 6 Xposition Yposition Zposition Zrotation Xrotation Yrotation
  JOINT RightUpLeg
  {
    OFFSET -8.9458 -8.66707 0.101652
    CHANNELS 3 Zrotation Xrotation Yrotation
    JOINT RightLeg
    {
      OFFSET 0 -44.4227 1.3727
      CHANNELS 3 Zrotation Xrotation Yrotation
      JOINT RightFoot
      {
        OFFSET 0.253549 -42.0924 -1.46059
        CHANNELS 3 Zrotation Xrotation Yrotation
        JOINT RightToes
        {
          OFFSET 0.04 -4.41509 8.4991
          CHANNELS 3 Zrotation Xrotation Yrotation
          End Site
          {
            OFFSET -0.08 -0.137448 9.77979
          }
        }
      }
    }
  }
  JOINT Spine
  {
    OFFSET 0 11.8905 0
    CHANNELS 3 Zrotation Xrotation Yrotation
    JOINT Spine1
    {
      OFFSET 0 25.6574 0.127663
      CHANNELS 3 Zrotation Xrotation Yrotation
      JOINT HEad
      {
        OFFSET 0 8.73416 0.011341
        CHANNELS 3 Zrotation Xrotation Yrotation
        End Site
        {
          OFFSET -0.29 12.7742 2.51395
        }
      }
      JOINT LeftShoulder1
      {
        OFFSET 8.99 -0.362252 -0.22
        CHANNELS 3 Zrotation Xrotation Yrotation
        JOINT LeftArm
        {
          OFFSET 10.2827 -0.00337999 0.322123
          CHANNELS 3 Zrotation Xrotation Yrotation
          JOINT LeftForeArm
          {
            OFFSET 32.7669 0.099144 -1.42434
            CHANNELS 3 Zrotation Xrotation Yrotation
            JOINT LeftHand
            {
              OFFSET 27.5643 0.085362 1.02216
              CHANNELS 3 Zrotation Xrotation Yrotation
              End Site
              {
                OFFSET 16.7443 -0.6 1.50291
              }
            }
          }
        }
      }
      JOINT RightShoulder
      {
        OFFSET -8.99 -0.362252 -0.22
        CHANNELS 3 Zrotation Xrotation Yrotation
        JOINT RightArm
        {
          OFFSET -10.2827 -0.00338 0.322123
          CHANNELS 3 Zrotation Xrotation Yrotation
          JOINT RightForeArm
          {
            OFFSET -32.8971 0.099144 -1.42434
            CHANNELS 3 Zrotation Xrotation Yrotation
            JOINT RightHand
            {
              OFFSET -27.4921 0.085362 1.02216
              CHANNELS 3 Zrotation Xrotation Yrotation
              End Site
              {
                OFFSET -16.6312 -0.6 1.50291
              }
            }
          }
        }
      }
    }
  }
  JOINT LeftUpLeg
  {
    OFFSET 8.9458 -8.66707 0.101652
    CHANNELS 3 Zrotation Xrotation Yrotation
    JOINT LeftLeg
    {
      OFFSET 0 -44.4227 1.3727
      CHANNELS 3 Zrotation Xrotation Yrotation
      JOINT LeftFoot
      {
        OFFSET -0.253549 -42.0924 -1.46059
        CHANNELS 3 Zrotation Xrotation Yrotation
        JOINT LeftToes
        {
          OFFSET -0.04 -4.41509 8.4991
          CHANNELS 3 Zrotation Xrotation Yrotation
          End Site
          {
            OFFSET 0.08 -0.047448 9.77979
          }
        }
      }
    }
  }
}
MOTION
Frames:	16
Frame Time:	0.0166667
52.5999 95.5717 107.011 2.82565 0.184106 -92.1092 -19.1343 -36.0307 -9.37715 -2.0035 63.9072 14.7051 22.373 3.90615 -1.81527 0.0462048 0.000533964 0.662642 0.477176 6.50163 -4.59487 -0.105684 12.8245 -9.52348 9.70178 -11.3067 -8.21629 -3.97569e-016 1.19271e-015 -3.18055e-015 -105.062 -23.2692 -52.301 8.22493 71.9281 -139.435 22.0841 24.8972 32.854 12.8675 2.99794 16.2643 46.1948 -68.0136 -2.77212 36.1576 59.3214 89.5842 -20.3866 13.3095 33.4579 7.34861 -4.45675 1.31758 -3.76239 41.2909 6.62287 -4.58307 -20.6824 -0.527478 -9.93923e-016 2.37051e-014 3.97569e-015 
52.9647 96.2537 106.473 3.33186 0.84597 -91.0843 -19.9208 -37.0132 -9.99747 -0.379101 62.5534 13.2562 23.3812 8.51335 -2.85586 0.0462048 0.000533964 0.662642 0.942332 6.5947 -4.69348 0.64921 12.9035 -9.76711 9.39325 -11.6275 -8.98048 -1.98785e-015 5.46658e-015 -0 -105.014 -22.996 -52.7986 6.35494 72.8579 -137.04 22.9437 24.8589 31.5646 12.6023 2.99081 16.4915 42.9163 -69.3373 -4.53594 36.7332 59.4156 89.1942 -20.1084 13.3846 33.5685 8.83494 -7.25113 1.85087 -3.67203 43.3532 5.87021 -5.02657 -17.5477 -0.468516 9.93923e-017 2.32081e-014 7.95139e-015 
53.2895 97.0166 105.938 3.84977 1.49253 -89.8858 -20.4901 -37.35 -10.3779 0.703281 60.7246 11.62 23.3686 11.0242 -3.37815 0.0462048 0.000533964 0.662642 1.40466 6.62996 -4.77599 1.36034 12.8712 -9.96646 9.22167 -11.5208 -9.84938 2.38542e-015 -5.26779e-015 1.59028e-015 -104.895 -22.5197 -53.3105 4.93515 73.5385 -135.078 23.7203 24.8204 30.4568 12.3301 3.0002 16.8385 37.9293 -71.9662 -7.19251 37.856 59.7748 87.6523 -20.3345 13.3032 33.5862 10.3498 -10.4634 2.68591 -3.55588 45.5989 5.20391 -5.53224 -13.3888 -0.33137 8.44835e-016 2.38914e-014 4.77083e-015 
53.5698 97.7486 105.43 4.31039 2.03665 -88.6762 -20.71 -37.0956 -10.3434 0.943308 58.5585 10.152 22.3275 11.334 -3.27933 0.0462048 0.000533964 0.662642 1.82441 6.62222 -4.81058 1.92909 12.7667 -10.0466 9.21937 -11.1129 -10.7719 -7.95139e-016 -3.27995e-015 -1.59028e-015 -104.739 -21.8863 -53.9167 4.14166 74.0129 -133.732 24.3799 24.7916 29.5891 12.0348 3.01864 17.2809 30.152 -75.8448 -11.9677 39.9108 60.3651 84.3513 -21.0085 13.0956 33.4549 11.7187 -13.7965 3.81238 -3.39522 47.8279 4.84947 -6.10778 -8.70772 -0.121513 -1.47038e-030 2.64881e-014 3.18055e-015 
53.7827 98.3303 104.944 4.65653 2.40502 -87.6292 -20.5192 -36.3028 -9.78711 0.288812 56.1406 9.10027 20.7617 9.67888 -2.72111 0.0462048 0.000533964 0.662642 2.13096 6.58187 -4.76743 2.28649 12.6284 -9.9446 9.35449 -10.5441 -11.7069 -7.95139e-016 -4.77083e-015 6.36111e-015 -104.581 -21.1742 -54.6515 3.99126 74.3315 -133.037 24.8857 24.7797 29.0031 11.7134 3.03924 17.7829 16.349 -80.533 -22.2641 43.1337 61.0102 78.8354 -21.9824 12.8319 33.0967 12.8723 -16.9464 5.11529 -3.38421 49.9221 5.10741 -6.68915 -4.09513 0.139458 -1.59028e-015 2.20651e-014 6.36111e-015 
53.8967 98.6612 104.446 4.85032 2.56028 -86.8832 -19.9704 -35.0345 -8.73203 -1.05617 53.5568 8.60025 19.3609 6.58721 -1.97956 0.0462048 0.000533964 0.662642 2.25102 6.51327 -4.63079 2.40859 12.4803 -9.63276 9.55345 -9.92522 -12.6301 -3.97569e-016 2.48481e-016 1.59028e-015 -104.439 -20.4708 -55.4884 4.38473 74.5302 -132.924 25.1986 24.7884 28.7302 11.3778 3.05646 18.2985 -16.9225 -84.8291 -51.7012 47.413 61.3989 71.0804 -23.0536 12.6016 32.4527 13.846 -19.6413 6.40679 -3.88499 51.8042 6.26284 -7.15192 -0.0816995 0.411467 -3.17801e-030 2.8625e-014 6.36111e-015 
53.89 98.6855 103.896 4.87461 2.52224 -86.5092 -19.2253 -33.4179 -7.34496 -2.68574 50.9752 8.67282 18.594 2.79191 -1.25712 0.0462048 0.000533964 0.662642 2.15901 6.4213 -4.40565 2.32328 12.3319 -9.13159 9.74316 -9.32204 -13.5325 9.93923e-016 -5.46658e-016 1.59028e-015 -104.312 -19.8511 -56.3525 5.16429 74.6237 -133.27 25.2875 24.8189 28.7888 11.0486 3.06611 18.7743 -86.2705 -85.3063 -117.085 52.2345 61.1909 61.6523 -23.9987 12.4798 31.5629 14.7329 -21.6734 7.4954 -5.21622 53.3814 8.41608 -7.40215 2.98445 0.64785 -1.03727e-030 1.86858e-014 3.18055e-015 
53.762 98.4063 103.263 4.732 2.3744 -86.5022 -18.4886 -31.6997 -5.89429 -4.13479 48.7095 9.28842 18.524 -0.953389 -0.633713 0.0462048 0.000533964 0.662642 1.91849 6.31785 -4.11765 2.10522 12.1868 -8.50561 9.88585 -8.77335 -14.4105 -1.98785e-016 -3.95085e-015 1.59028e-015 -104.177 -19.3649 -57.1508 6.15184 74.6142 -133.943 25.1388 24.8683 29.1772 10.7484 3.06495 19.1551 -123.057 -82.3008 -150.019 56.8515 60.1353 51.6133 -24.5973 12.4929 30.6366 15.6215 -22.9211 8.24012 -7.40736 54.5255 11.3453 -7.44242 4.96888 0.816613 4.77083e-015 2.82274e-014 9.54166e-015 
53.5337 97.8818 102.535 4.4446 2.24252 -86.7929 -17.9207 -30.2431 -4.68075 -5.04803 47.1968 10.4499 18.9124 -4.02495 -0.139236 0.0462048 0.000533964 0.662642 1.67226 6.22176 -3.80776 1.85428 12.0522 -7.84571 9.99002 -8.32241 -15.2552 -7.95139e-016 1.26725e-015 1.59028e-015 -104 -19.0374 -57.8054 7.15703 74.505 -134.791 24.7635 24.9289 29.8627 10.4904 3.04969 19.3923 -139.318 -79.5358 -162.83 60.5961 58.1288 42.2123 -24.6477 12.6115 30.0444 16.5562 -23.3622 8.56323 -10.1127 55.1331 14.5253 -7.35051 5.87673 0.906193 -3.18055e-015 4.05521e-014 3.18055e-015 
53.2335 97.1993 101.713 4.05452 2.24783 -87.2666 -17.5969 -29.442 -3.97432 -5.2898 46.8625 12.1887 19.4693 -5.95442 0.178173 0.0462048 0.000533964 0.662642 1.57372 6.15289 -3.52302 1.66167 11.9438 -7.24621 10.0944 -8.03808 -16.0473 -8.94531e-016 7.1314e-015 -0 -103.747 -18.8761 -58.2767 7.98543 74.3168 -135.637 24.2034 24.9887 30.7694 10.2707 3.01633 19.4533 -149.396 -77.8704 -170.17 63.1992 55.2332 34.4926 -23.9799 12.792 30.1836 17.5355 -23.0768 8.4461 -12.7706 55.2175 17.3337 -7.21254 5.74498 0.914259 -4.77083e-015 1.66979e-014 6.36111e-015 
52.8852 96.4382 100.795 3.61862 2.45712 -87.7843 -17.5311 -29.5796 -3.96159 -4.97802 47.9291 14.4777 20.0812 -6.39889 0.247565 0.0462048 0.000533964 0.662642 1.70093 6.12629 -3.30585 1.57816 11.8834 -6.78707 10.2396 -8.0093 -16.7589 4.96962e-016 -3.39176e-015 1.59028e-015 -103.398 -18.8793 -58.5668 8.45477 74.0987 -136.287 23.5341 25.0344 31.773 10.0688 2.96097 19.3298 -160.333 -81.1671 -179.015 60.0523 49.7687 34.4387 -22.5614 13.1358 30.6882 18.5337 -22.2334 7.93407 -14.8827 54.9379 19.3187 -7.08314 4.60541 0.839754 -1.28003e-030 2.3059e-014 3.18055e-015 
52.4987 95.6404 99.758 3.19809 2.85567 -88.1973 -17.7268 -30.718 -4.69161 -4.43941 50.2965 17.149 20.9024 -5.19651 0.0128526 0.0462048 0.000533964 0.662642 2.01031 6.14859 -3.1854 1.60017 11.8915 -6.52557 10.4491 -8.3144 -17.363 1.37935e-033 -4.96962e-017 1.59028e-015 -102.953 -19.0418 -58.7083 8.41329 73.929 -136.54 22.866 25.0561 32.7048 9.85474 2.88151 19.0409 -176.001 -84.6148 166.284 58.5849 44.4192 34.9512 -20.1678 13.64 32.0842 19.5255 -21.0593 7.13895 -16.1918 54.5356 20.3303 -6.98624 2.55889 0.687689 1.59028e-015 3.02153e-014 6.36111e-015 
52.0717 94.812 98.5672 2.84415 3.35904 -88.3589 -18.2078 -32.6821 -6.02925 -4.06368 53.5821 19.8896 22.2012 -2.53927 -0.535851 0.0462048 0.000533964 0.662642 2.36258 6.21602 -3.17514 1.68084 11.9774 -6.49525 10.7228 -8.98188 -17.8471 3.97569e-016 -9.19379e-016 1.59028e-015 -102.43 -19.3523 -58.7438 7.74418 73.9013 -136.198 22.3329 25.0527 33.374 9.60489 2.78054 18.6299 -178.478 -85.6945 163.362 61.3348 41.5501 33.317 -16.7331 14.4575 34.109 20.4975 -19.8066 6.22031 -16.662 54.2251 20.4453 -6.92778 -0.102099 0.47928 -1.59028e-015 1.51076e-014 3.18055e-015 
51.5963 93.9589 97.1926 2.58794 3.86394 -88.1361 -18.9924 -35.1325 -7.66452 -4.08703 57.2854 22.3079 23.9911 0.91976 -1.34005 0.0462048 0.000533964 0.662642 2.62183 6.31543 -3.27821 1.76175 12.134 -6.70428 11.0472 -9.96445 -18.2284 -3.97569e-016 1.39149e-015 -0 -101.86 -19.7823 -58.709 6.35412 74.0995 -135.07 22.0647 25.0296 33.6057 9.3137 2.66599 18.156 -155.878 -84.4584 -175.659 67.3755 41.4733 30.0212 -12.4158 15.7371 35.8869 21.4489 -18.7221 5.34735 -16.3413 54.119 19.7836 -6.90073 -2.85541 0.256529 2.38542e-015 2.82274e-014 6.36111e-015 
51.0716 93.1368 95.6353 2.43752 4.28085 -87.4371 -20.0673 -37.6712 -9.21104 -4.41592 60.921 23.9803 25.7811 4.27625 -2.23208 0.0462048 0.000533964 0.662642 2.70746 6.43184 -3.48117 1.78615 12.342 -7.126 11.407 -11.1407 -18.5652 6.21202e-016 -4.46955e-015 1.59028e-015 -101.278 -20.2751 -58.6243 4.14975 74.5666 -132.965 22.1472 24.9916 33.2871 9.00213 2.5506 17.6825 -134.619 -82.5093 -156.515 73.3504 43.1085 28.2691 -7.82107 17.3272 36.4112 22.3519 -18.0009 4.66143 -15.2227 54.1756 18.359 -6.89171 -5.03768 0.0761852 7.95139e-016 1.86858e-014 -3.18055e-015 
50.5161 92.4331 93.9445 2.37831 4.57719 -86.2452 -21.3459 -39.9493 -10.3388 -4.67184 64.0654 24.4636 26.8026 6.80481 -2.95104 0.0462048 0.000533964 0.662642 2.66313 6.55694 -3.75225 1.72187 12.5811 -7.68502 11.7896 -12.3422 -18.9586 -9.93923e-017 -2.38542e-015 1.59028e-015 -100.713 -20.7384 -58.4918 1.02871 75.2748 -129.708 22.5844 24.9336 32.4075 8.71949 2.45002 17.2666 -110.286 -82.2522 -134.184 74.8062 45.8305 32.3607 -3.86476 18.763 35.2067 23.1551 -17.7856 4.25098 -13.229 54.3065 16.0908 -6.92159 -6.07242 -0.0116355 3.18055e-015 2.26615e-014 3.18055e-015 
